<svg width="36" height="36" viewBox="0 0 36 36" fill="none" xmlns="http://www.w3.org/2000/svg">
<path fill-rule="evenodd" clip-rule="evenodd" d="M27.6708 6.15832C28.4118 6.52881 28.7121 7.42981 28.3416 8.17078L26.5798 11.6945C30.4611 14.4057 33 18.9063 33 24V25.5C33 27.1569 31.6569 28.5 30 28.5H6C4.34314 28.5 3 27.1569 3 25.5V24C3 18.9063 5.53888 14.4057 9.42021 11.6945L7.65837 8.17078C7.28788 7.42981 7.58821 6.52881 8.32918 6.15832C9.07015 5.78784 9.97116 6.08817 10.3416 6.82914L12.042 10.2298C13.8683 9.43858 15.8829 9 18 9C20.1171 9 22.1317 9.43858 23.958 10.2299L25.6584 6.82914C26.0289 6.08817 26.9298 5.78784 27.6708 6.15832ZM11.25 18C10.0074 18 9 19.0074 9 20.25C9 21.4926 10.0074 22.5 11.25 22.5C12.4926 22.5 13.5 21.4926 13.5 20.25C13.5 19.0074 12.4926 18 11.25 18ZM24.75 18C23.5074 18 22.5 19.0074 22.5 20.25C22.5 21.4926 23.5074 22.5 24.75 22.5C25.9926 22.5 27 21.4926 27 20.25C27 19.0074 25.9926 18 24.75 18Z" fill="#3E3E3E"/>
</svg>
