<svg width="32" height="32" viewBox="0 0 32 32" fill="none" xmlns="http://www.w3.org/2000/svg">
<path fill-rule="evenodd" clip-rule="evenodd" d="M20.6063 4.78935C21.6999 3.52185 22.4371 1.75649 22.2353 0C20.6594 0.0600006 18.7527 1.00673 17.6227 2.27273C16.608 3.39622 15.7222 5.19139 15.9603 6.91339C17.7183 7.04388 19.5127 6.05833 20.6063 4.78935ZM24.5485 15.9376C24.5924 20.4781 28.7045 21.9885 28.75 22.008C28.7166 22.1145 28.0932 24.1602 26.584 26.2751C25.278 28.1021 23.9235 29.9217 21.7894 29.9607C19.6932 29.9982 19.0182 28.7698 16.6201 28.7698C14.2235 28.7698 13.4742 29.9216 11.4903 29.9981C9.43043 30.0716 7.86054 28.0214 6.54546 26.2004C3.85464 22.4759 1.79937 15.6753 4.55996 11.0853C5.93116 8.80682 8.3808 7.36175 11.0413 7.32575C13.0632 7.28825 14.9729 8.62947 16.2091 8.62947C17.4452 8.62947 19.766 7.01697 22.205 7.25397C23.2258 7.29447 26.0926 7.64835 27.9325 10.2298C27.7838 10.3183 24.5121 12.1427 24.5485 15.9376Z" fill="#3E3E3E"/>
</svg>
