<svg width="20" height="21" viewBox="0 0 20 21" fill="none" xmlns="http://www.w3.org/2000/svg">
<path fill-rule="evenodd" clip-rule="evenodd" d="M15.821 14.9316C15.58 15.6138 14.622 16.1782 13.858 16.3433C13.335 16.4543 12.653 16.5421 10.355 15.5898C7.774 14.5205 4.19 10.7115 4.19 8.17676C4.19 6.88637 4.934 5.38379 6.235 5.38379C6.861 5.38379 6.999 5.396 7.205 5.89014C7.446 6.47232 8.034 7.90667 8.104 8.05371C8.393 8.65689 7.80999 9.01 7.38699 9.53516C7.25199 9.6932 7.099 9.86412 7.27 10.1582C7.44 10.4463 8.028 11.4046 8.892 12.1738C10.008 13.1681 10.913 13.4856 11.237 13.6206C11.478 13.7206 11.766 13.6973 11.942 13.5093C12.165 13.2682 12.442 12.8682 12.724 12.4741C12.923 12.192 13.176 12.1568 13.441 12.2568C13.62 12.3189 15.895 13.3754 15.991 13.5444C16.062 13.6675 16.062 14.2494 15.821 14.9316ZM10.002 0.810547H9.99699C4.48399 0.810547 0 5.2959 0 10.8105C0 12.9972 0.705007 15.0259 1.90401 16.6714L0.658005 20.3872L4.50101 19.1592C6.08201 20.2055 7.969 20.8105 10.002 20.8105C15.515 20.8105 20 16.3252 20 10.8105C20 5.2959 15.515 0.810547 10.002 0.810547Z" fill="#E0E0E0"/>
</svg>
