<svg width="20" height="21" viewBox="0 0 20 21" fill="none" xmlns="http://www.w3.org/2000/svg">
<path d="M17.258 3.85628C17.258 3.85628 18.8769 3.22504 18.742 4.75807C18.697 5.38933 18.2923 7.59871 17.9775 9.98845L16.8983 17.0675C16.8983 17.0675 16.8084 18.1045 15.9989 18.2849C15.1895 18.4652 13.9753 17.6537 13.7505 17.4733C13.5706 17.338 10.3778 15.309 9.25358 14.317C8.93879 14.0465 8.57904 13.5054 9.29854 12.8742L14.0203 8.36525C14.5599 7.82416 15.0995 6.56166 12.8511 8.09471L6.55546 12.3782C6.55546 12.3782 5.83596 12.8291 4.48692 12.4233L1.56393 11.5215C1.56393 11.5215 0.484671 10.8452 2.3284 10.1688C6.82529 8.04958 12.3565 5.88529 17.258 3.85628Z" fill="#E0E0E0"/>
</svg>
