<svg width="18" height="16" viewBox="0 0 18 16" fill="none" xmlns="http://www.w3.org/2000/svg">
<path fill-rule="evenodd" clip-rule="evenodd" d="M4.83335 0.102539C3.48755 0.102539 2.27056 0.438897 1.38724 1.25912C0.495537 2.08714 0.041687 3.31675 0.041687 4.89421V10.7275C0.041687 12.305 0.495537 13.5346 1.38724 14.3626C2.27056 15.1829 3.48755 15.5192 4.83335 15.5192H13.1667C14.5125 15.5192 15.7295 15.1829 16.6128 14.3626C17.5045 13.5346 17.9584 12.305 17.9584 10.7275V4.89421C17.9584 3.31675 17.5045 2.08714 16.6128 1.25912C15.7295 0.438897 14.5125 0.102539 13.1667 0.102539H4.83335ZM15.0238 4.77946C15.2969 4.56841 15.3472 4.17589 15.1361 3.90276C14.9251 3.62961 14.5326 3.57929 14.2594 3.79035L9.63685 7.36221C9.26177 7.65212 8.73819 7.65212 8.36302 7.36221L3.74052 3.79035C3.46738 3.57929 3.07487 3.62961 2.86381 3.90276C2.65275 4.17589 2.70308 4.56841 2.97622 4.77946L7.59877 8.35137C8.4241 8.98904 9.57585 8.98904 10.4012 8.35137L15.0238 4.77946Z" fill="#E0E0E0"/>
</svg>
