<svg width="16" height="16" viewBox="0 0 16 16" fill="none" xmlns="http://www.w3.org/2000/svg">
<path d="M8 16C3.6 16 0 12.4 0 8C0 3.6 3.6 0 8 0C12.4 0 16 3.6 16 8C16 12.4 12.4 16 8 16ZM6.33333 11.3333C6.73333 13.4 7.46667 14.6667 8 14.6667C8.53333 14.6667 9.26667 13.4 9.66667 11.3333H6.33333ZM11.0667 11.3333C10.8667 12.4667 10.5333 13.5333 10.1333 14.3333C11.6667 13.8 13 12.7333 13.8 11.3333H11.0667ZM2.2 11.3333C3 12.7333 4.33333 13.8 5.86667 14.3333C5.46667 13.5333 5.13333 12.4667 4.93333 11.3333H2.2ZM11.2667 10H14.4C14.5333 9.4 14.6667 8.66667 14.6667 8C14.6667 7.33333 14.5333 6.6 14.3333 6H11.2C11.3333 6.66667 11.3333 7.33333 11.3333 8C11.3333 8.66667 11.3333 9.33333 11.2667 10ZM6.13333 10H9.93333C10 9.4 10.0667 8.73333 10.0667 8C10.0667 7.26667 10 6.6 9.93333 6H6.13333C6.06667 6.6 6 7.26667 6 8C6 8.73333 6.06667 9.4 6.13333 10ZM1.66667 10H4.8C4.73333 9.33333 4.73333 8.66667 4.73333 8C4.73333 7.33333 4.73333 6.66667 4.8 6H1.66667C1.46667 6.6 1.33333 7.33333 1.33333 8C1.33333 8.66667 1.46667 9.4 1.66667 10ZM11.0667 4.66667H13.8C13 3.26667 11.6667 2.2 10.1333 1.66667C10.5333 2.46667 10.8667 3.53333 11.0667 4.66667ZM6.33333 4.66667H9.73333C9.33333 2.6 8.6 1.33333 8.06667 1.33333C7.53333 1.33333 6.73333 2.6 6.33333 4.66667ZM2.2 4.66667H4.93333C5.13333 3.53333 5.46667 2.46667 5.86667 1.66667C4.33333 2.2 3.06667 3.26667 2.2 4.66667Z" fill="#E0E0E0"/>
</svg>
