<svg width="18" height="19" viewBox="0 0 18 19" fill="none" xmlns="http://www.w3.org/2000/svg">
<path fill-rule="evenodd" clip-rule="evenodd" d="M18 18.8105H14.4V12.5114C14.4 10.7834 13.6377 9.81934 12.2706 9.81934C10.7829 9.81934 9.9 10.8239 9.9 12.5114V18.8105H6.3V7.11055H9.9V8.42627C9.9 8.42627 11.0295 6.44434 13.5747 6.44434C16.1208 6.44434 18 7.99804 18 11.2128V18.8105ZM2.1978 5.23936C0.983701 5.23936 0 4.24761 0 3.02451C0 1.80231 0.983701 0.810547 2.1978 0.810547C3.411 0.810547 4.3947 1.80231 4.3947 3.02451C4.3956 4.24761 3.411 5.23936 2.1978 5.23936ZM0 18.8105H4.5V7.11055H0V18.8105Z" fill="#E0E0E0"/>
</svg>
