<svg width="78" height="50" viewBox="0 0 78 50" fill="none" xmlns="http://www.w3.org/2000/svg">
<path d="M38.5312 42.8865C40.7921 45.1498 44.1216 47.0993 47.794 47.0993C50.5091 47.0993 53.1129 46.019 55.0329 44.0962C56.9528 42.1736 58.0312 39.5657 58.0312 36.8466C58.0312 22.9325 38.5316 11.9476 38.5316 11.9476C38.5316 11.9476 57.5629 2.90074 77.0625 2.90074M38.5312 42.8865C37.1673 41.5212 36.1924 40.0416 35.7656 38.807C34.6315 35.5257 35.9678 32.8539 38.5312 32.8539C41.0947 32.8539 42.431 35.5257 41.2969 38.807C40.8701 40.0416 39.8951 41.5212 38.5312 42.8865ZM38.5312 42.8865C36.2704 45.1498 32.9408 47.0993 29.2685 47.0993C26.5534 47.0993 23.9496 46.019 22.0296 44.0962C20.1097 42.1736 19.0313 39.5657 19.0313 36.8466C19.0313 22.9325 38.5309 11.9476 38.5309 11.9476C38.5309 11.9476 19.4996 2.90074 0 2.90074" stroke="url(#paint0_linear_1_22)" stroke-width="4" stroke-miterlimit="10"/>
<defs>
<linearGradient id="paint0_linear_1_22" x1="0" y1="47.0993" x2="77.0625" y2="47.0993" gradientUnits="userSpaceOnUse">
<stop stop-color="#EECB6D"/>
<stop offset="1" stop-color="#C59D3E"/>
</linearGradient>
</defs>
</svg>
