<svg width="40" height="40" viewBox="0 0 40 40" fill="none" xmlns="http://www.w3.org/2000/svg">
<path fill-rule="evenodd" clip-rule="evenodd" d="M24.6667 7.86669C24.6667 6.98674 24.6667 6.54676 24.3933 6.27339C24.1199 6.00002 23.6799 6.00002 22.8 6.00002V5.06669C22.8 4.55123 22.3821 4.13336 21.8667 4.13336C21.3512 4.13336 20.9333 4.55123 20.9333 5.06669V6.00002H19.0667V5.3778C19.0667 5.08848 19.0667 4.94382 19.0349 4.82513C18.9486 4.50304 18.697 4.25146 18.3749 4.16516C18.2562 4.13336 18.1115 4.13336 17.8222 4.13336C17.6776 4.13336 17.6052 4.13336 17.5459 4.11746C17.3848 4.07431 17.259 3.94852 17.2159 3.78747C17.2 3.72813 17.2 3.6558 17.2 3.51114V2.88891C17.2 2.74425 17.2 2.67192 17.2159 2.61258C17.259 2.45153 17.3848 2.32574 17.5459 2.28259C17.6052 2.26669 17.6776 2.26669 17.8222 2.26669H18.1333C18.6488 2.26669 19.0667 1.84882 19.0667 1.33336C19.0667 0.817892 18.6488 0.400024 18.1333 0.400024H17.2C16.32 0.400024 15.8801 0.400024 15.6067 0.673391C15.3333 0.946758 15.3333 1.38674 15.3333 2.26669V4.13336C15.3333 5.01331 15.3333 5.45329 15.6067 5.72666C15.8801 6.00002 16.32 6.00002 17.2 6.00002H19.0667V6.93336C19.0667 7.44882 19.4845 7.86669 20 7.86669C20.5155 7.86669 20.9333 7.44882 20.9333 6.93336V6.00002H22.8V9.11114C22.8 9.2558 22.8 9.32813 22.7841 9.38747C22.7409 9.54852 22.6152 9.6743 22.4541 9.71746C22.3948 9.73336 22.3224 9.73336 22.1778 9.73336C21.8884 9.73336 21.7438 9.73336 21.6251 9.76516C21.303 9.85146 21.0514 10.103 20.9651 10.4251C20.9333 10.5438 20.9333 10.6885 20.9333 10.9778V11.6H20C19.4845 11.6 19.0667 12.0179 19.0667 12.5334C19.0667 13.0488 18.6488 13.4667 18.1333 13.4667H17.2V12.5334C17.2 12.0179 16.7821 11.6 16.2667 11.6C15.7512 11.6 15.3333 12.0179 15.3333 12.5334C15.3333 13.0488 15.7512 13.4667 16.2667 13.4667H17.2C17.2 14.3466 17.2 14.7866 16.9266 15.06C16.6533 15.3334 16.2133 15.3334 15.3333 15.3334H7.24444C6.95511 15.3334 6.81045 15.3334 6.69176 15.3652C6.36968 15.4515 6.1181 15.703 6.0318 16.0251C5.99999 16.1438 5.99999 16.2885 5.99999 16.5778C5.99999 16.7225 5.99999 16.7948 5.98409 16.8541C5.94094 17.0152 5.81515 17.141 5.65411 17.1841C5.59476 17.2 5.52243 17.2 5.37777 17.2H2.88888C2.74422 17.2 2.67189 17.2 2.61255 17.1841C2.4515 17.141 2.32571 17.0152 2.28256 16.8541C2.26666 16.7948 2.26666 16.7225 2.26666 16.5778V16.2667C2.26666 15.7512 1.84879 15.3334 1.33333 15.3334C0.817861 15.3334 0.399994 15.7512 0.399994 16.2667V17.2C0.399994 18.08 0.399994 18.52 0.673361 18.7933C0.946728 19.0667 1.38671 19.0667 2.26666 19.0667H6.93333C7.3733 19.0667 7.59329 19.0667 7.72998 19.2034C7.86666 19.3401 7.86666 19.56 7.86666 20V22.8H4.13333V21.8667C4.13333 21.3512 3.71546 20.9334 3.19999 20.9334C2.68453 20.9334 2.26666 21.3512 2.26666 21.8667C2.26666 22.3822 2.68453 22.8 3.19999 22.8H4.13333C4.13333 23.68 4.13333 24.12 4.40669 24.3933C4.68006 24.6667 5.12004 24.6667 5.99999 24.6667C6.87995 24.6667 7.31993 24.6667 7.59329 24.3933C7.86666 24.12 7.86666 23.68 7.86666 22.8H11.6C11.6 23.68 11.6 24.12 11.8734 24.3933C12.1467 24.6667 12.5867 24.6667 13.4667 24.6667H14.4C14.84 24.6667 15.06 24.6667 15.1966 24.8034C15.3333 24.9401 15.3333 25.16 15.3333 25.6V32.1334C15.3333 33.0133 15.3333 33.4533 15.6067 33.7267C15.8801 34 16.32 34 17.2 34C18.0799 34 18.5199 34 18.7933 33.7267C19.0667 33.4533 19.0667 33.0133 19.0667 32.1334H20.3111C20.4558 32.1334 20.5281 32.1334 20.5874 32.1493C20.7485 32.1924 20.8743 32.3182 20.9174 32.4792C20.9333 32.5386 20.9333 32.6109 20.9333 32.7556C20.9333 33.0449 20.9333 33.1896 20.9651 33.3083C21.0514 33.6303 21.303 33.8819 21.6251 33.9682C21.7438 34 21.8884 34 22.1778 34H22.8C23.6799 34 24.1199 34 24.3933 33.7267C24.6667 33.4533 24.6667 33.0133 24.6667 32.1334V31.2C24.6667 30.76 24.6667 30.5401 24.8033 30.4034C24.94 30.2667 25.16 30.2667 25.6 30.2667H26.5333V31.2C26.5333 31.7155 26.9512 32.1334 27.4667 32.1334C27.9821 32.1334 28.4 31.7155 28.4 31.2C28.4 30.6846 27.9821 30.2667 27.4667 30.2667H26.5333V29.3334C26.5333 28.8934 26.5333 28.6734 26.67 28.5367C26.8067 28.4 27.0267 28.4 27.4667 28.4H31.2C31.64 28.4 31.86 28.4 31.9966 28.5367C32.1333 28.6734 32.1333 28.8934 32.1333 29.3334V30.2667H31.2C30.6845 30.2667 30.2667 30.6846 30.2667 31.2C30.2667 31.7155 30.6845 32.1334 31.2 32.1334C31.7155 32.1334 32.1333 31.7155 32.1333 31.2V30.2667H35.8667V32.1334H35.2444C34.9551 32.1334 34.8105 32.1334 34.6918 32.1652C34.3697 32.2515 34.1181 32.503 34.0318 32.8251C34 32.9438 34 33.0885 34 33.3778C34 33.5225 34 33.5948 33.9841 33.6541C33.9409 33.8152 33.8152 33.941 33.6541 33.9841C33.5948 34 33.5224 34 33.3778 34H32.1333C31.2534 34 30.8134 34 30.54 34.2734C30.2667 34.5468 30.2667 34.9867 30.2667 35.8667H29.0222C28.8776 35.8667 28.8052 35.8667 28.7459 35.8508C28.5848 35.8076 28.459 35.6819 28.4159 35.5208C28.4 35.4615 28.4 35.3891 28.4 35.2445V34.9334C28.4 34.4179 27.9821 34 27.4667 34C26.9512 34 26.5333 34.4179 26.5333 34.9334V35.2445C26.5333 35.3891 26.5333 35.4615 26.5174 35.5208C26.4743 35.6819 26.3485 35.8076 26.1874 35.8508C26.1281 35.8667 26.0558 35.8667 25.9111 35.8667H25.6C25.0845 35.8667 24.6667 36.2846 24.6667 36.8C24.6667 37.3155 25.0845 37.7334 25.6 37.7334H27.7778C27.9224 37.7334 27.9948 37.7334 28.0541 37.7493C28.2152 37.7924 28.3409 37.9182 28.3841 38.0792C28.4 38.1386 28.4 38.2109 28.4 38.3556C28.4 38.6449 28.4 38.7896 28.4318 38.9083C28.5181 39.2303 28.7697 39.4819 29.0918 39.5682C29.2105 39.6 29.3551 39.6 29.6444 39.6H30.2667C31.1466 39.6 31.5866 39.6 31.86 39.3267C32.1333 39.0533 32.1333 38.6133 32.1333 37.7334H37.7333C38.6133 37.7334 39.0533 37.7334 39.3266 37.46C39.6 37.1866 39.6 36.7466 39.6 35.8667C39.6 34.9867 39.6 34.5468 39.3266 34.2734C39.0533 34 38.6133 34 37.7333 34H36.8C36.36 34 36.14 34 36.0033 33.8633C35.8667 33.7267 35.8667 33.5067 35.8667 33.0667V32.1334H38.6667C39.1821 32.1334 39.6 31.7155 39.6 31.2C39.6 30.6846 39.1821 30.2667 38.6667 30.2667H35.8667V29.6445C35.8667 29.3551 35.8667 29.2105 35.8349 29.0918C35.7486 28.7697 35.497 28.5181 35.1749 28.4318C35.0562 28.4 34.9115 28.4 34.6222 28.4C34.4776 28.4 34.4052 28.4 34.3459 28.3841C34.1848 28.341 34.059 28.2152 34.0159 28.0541C34 27.9948 34 27.9225 34 27.7778V26.5334H37.7333C38.6133 26.5334 39.0533 26.5334 39.3266 26.26C39.6 25.9866 39.6 25.5466 39.6 24.6667V23.7334C39.6 23.2179 39.1821 22.8 38.6667 22.8C38.1512 22.8 37.7333 23.2179 37.7333 23.7334V24.0445C37.7333 24.1891 37.7333 24.2615 37.7174 24.3208C37.6743 24.4818 37.5485 24.6076 37.3874 24.6508C37.3281 24.6667 37.2558 24.6667 37.1111 24.6667H35.8667C34.9867 24.6667 34.5467 24.6667 34.2734 24.9401C34 25.2134 34 25.6534 34 26.5334H25.2889C25.1442 26.5334 25.0719 26.5334 25.0125 26.5175C24.8515 26.4743 24.7257 26.3485 24.6826 26.1875C24.6667 26.1281 24.6667 26.0558 24.6667 25.9111C24.6667 25.6218 24.6667 25.4771 24.6349 25.3585C24.5486 25.0364 24.297 24.7848 23.9749 24.6985C23.8562 24.6667 23.7115 24.6667 23.4222 24.6667H20.9333V23.4222C20.9333 23.2776 20.9333 23.2053 20.9492 23.1459C20.9924 22.9849 21.1182 22.8591 21.2792 22.8159C21.3386 22.8 21.4109 22.8 21.5555 22.8H21.8667C22.3821 22.8 22.8 22.3822 22.8 21.8667C22.8 21.3512 22.3821 20.9334 21.8667 20.9334H21.5555C21.4109 20.9334 21.3386 20.9334 21.2792 20.9175C21.1182 20.8743 20.9924 20.7485 20.9492 20.5875C20.9333 20.5281 20.9333 20.4558 20.9333 20.3111V16.2667C20.9333 15.8267 20.9333 15.6067 21.07 15.47C21.2067 15.3334 21.4267 15.3334 21.8667 15.3334C22.3066 15.3334 22.5266 15.3334 22.6633 15.47C22.8 15.6067 22.8 15.8267 22.8 16.2667V17.2C22.8 18.08 22.8 18.52 23.0734 18.7933C23.3467 19.0667 23.7867 19.0667 24.6667 19.0667C24.6667 19.9466 24.6667 20.3866 24.94 20.66C25.2134 20.9334 25.6534 20.9334 26.5333 20.9334C27.4133 20.9334 27.8533 20.9334 28.1266 20.66C28.4 20.3866 28.4 19.9466 28.4 19.0667C28.4 18.1867 28.4 17.7468 28.1266 17.4734C27.8533 17.2 27.4133 17.2 26.5333 17.2V16.5778C26.5333 16.2885 26.5333 16.1438 26.5015 16.0251C26.4152 15.703 26.1636 15.4515 25.8416 15.3652C25.7229 15.3334 25.5782 15.3334 25.2889 15.3334C25.1442 15.3334 25.0719 15.3334 25.0125 15.3175C24.8515 15.2743 24.7257 15.1485 24.6826 14.9875C24.6667 14.9281 24.6667 14.8558 24.6667 14.7111V7.86669ZM26.5333 17.2H25.6C25.16 17.2 24.94 17.2 24.8033 17.3367C24.6667 17.4734 24.6667 17.6934 24.6667 18.1334V19.0667H25.6C26.04 19.0667 26.26 19.0667 26.3966 18.93C26.5333 18.7933 26.5333 18.5733 26.5333 18.1334V17.2ZM20.9333 26.5334V24.6667H19.0667V21.8667C19.0667 21.4267 19.0667 21.2067 18.93 21.07C18.7933 20.9334 18.5733 20.9334 18.1333 20.9334H16.2667C15.8267 20.9334 15.6067 20.9334 15.47 21.07C15.3333 21.2067 15.3333 21.4267 15.3333 21.8667V22.1778C15.3333 22.3225 15.3333 22.3948 15.3492 22.4541C15.3924 22.6152 15.5182 22.741 15.6792 22.7841C15.7386 22.8 15.8109 22.8 15.9555 22.8C16.2449 22.8 16.3895 22.8 16.5082 22.8318C16.8303 22.9181 17.0819 23.1697 17.1682 23.4918C17.2 23.6105 17.2 23.7551 17.2 24.0445C17.2 24.1891 17.2 24.2615 17.2159 24.3208C17.259 24.4818 17.3848 24.6076 17.5459 24.6508C17.6052 24.6667 17.6776 24.6667 17.8222 24.6667H19.0667V25.6C19.0667 26.04 19.0667 26.26 19.2033 26.3967C19.34 26.5334 19.56 26.5334 20 26.5334H20.9333ZM20.9333 28.4V26.5334H21.8667C22.3066 26.5334 22.5266 26.5334 22.6633 26.67C22.8 26.8067 22.8 27.0267 22.8 27.4667C22.8 27.9067 22.8 28.1267 22.6633 28.2633C22.5266 28.4 22.3066 28.4 21.8667 28.4H20.9333ZM20.9333 28.4H18.1333C17.6933 28.4 17.4734 28.4 17.3367 28.5367C17.2 28.6734 17.2 28.8934 17.2 29.3334V31.2C17.2 31.64 17.2 31.86 17.3367 31.9967C17.4734 32.1334 17.6933 32.1334 18.1333 32.1334H19.0667V31.5111C19.0667 31.2218 19.0667 31.0771 19.0985 30.9585C19.1848 30.6364 19.4363 30.3848 19.7584 30.2985C19.8771 30.2667 20.0218 30.2667 20.3111 30.2667C20.4558 30.2667 20.5281 30.2667 20.5874 30.2508C20.7485 30.2076 20.8743 30.0819 20.9174 29.9208C20.9333 29.8615 20.9333 29.7891 20.9333 29.6445V28.4ZM32.1333 37.7334H31.2C30.76 37.7334 30.54 37.7334 30.4033 37.5967C30.2667 37.46 30.2667 37.24 30.2667 36.8V35.8667H31.2C31.64 35.8667 31.86 35.8667 31.9966 36.0034C32.1333 36.1401 32.1333 36.36 32.1333 36.8V37.7334ZM11.6 20.9334H12.5333C12.9733 20.9334 13.1933 20.9334 13.33 21.07C13.4667 21.2067 13.4667 21.4267 13.4667 21.8667C13.4667 22.3067 13.4667 22.5267 13.33 22.6633C13.1933 22.8 12.9733 22.8 12.5333 22.8H11.6V20.9334ZM11.6 20.9334H10.6667C10.2267 20.9334 10.0067 20.9334 9.87001 20.7967C9.73333 20.66 9.73333 20.44 9.73333 20V18.1334C9.73333 17.6934 9.73333 17.4734 9.87001 17.3367C10.0067 17.2 10.2267 17.2 10.6667 17.2H16.2667C16.7066 17.2 16.9266 17.2 17.0633 17.3367C17.2 17.4734 17.2 17.6934 17.2 18.1334C17.2 18.5733 17.2 18.7933 17.0633 18.93C16.9266 19.0667 16.7066 19.0667 16.2667 19.0667H13.4667C12.5867 19.0667 12.1467 19.0667 11.8734 19.3401C11.6 19.6134 11.6 20.0534 11.6 20.9334ZM20.9333 11.6H21.8667C22.3066 11.6 22.5266 11.6 22.6633 11.7367C22.8 11.8734 22.8 12.0934 22.8 12.5334C22.8 12.9733 22.8 13.1933 22.6633 13.33C22.5266 13.4667 22.3066 13.4667 21.8667 13.4667C21.4267 13.4667 21.2067 13.4667 21.07 13.33C20.9333 13.1933 20.9333 12.9733 20.9333 12.5334V11.6Z" fill="#E0E0E0"/>
<path d="M16.2667 7.86669C16.7821 7.86669 17.2 8.28456 17.2 8.80002C17.2 9.31549 16.7821 9.73336 16.2667 9.73336C15.7512 9.73336 15.3333 9.31549 15.3333 8.80002C15.3333 8.28456 15.7512 7.86669 16.2667 7.86669Z" fill="#E0E0E0"/>
<path d="M21.8667 2.26669C21.3512 2.26669 20.9333 1.84882 20.9333 1.33336C20.9333 0.817892 21.3512 0.400024 21.8667 0.400024H23.7333C24.2488 0.400024 24.6667 0.817892 24.6667 1.33336C24.6667 1.84882 24.2488 2.26669 23.7333 2.26669H21.8667Z" fill="#E0E0E0"/>
<path d="M31.2 15.3334C30.6845 15.3334 30.2667 15.7512 30.2667 16.2667V20C30.2667 20.5155 30.6845 20.9334 31.2 20.9334C31.7155 20.9334 32.1333 20.5155 32.1333 20V19.6889C32.1333 19.5443 32.1333 19.4719 32.1492 19.4126C32.1924 19.2515 32.3182 19.1257 32.4792 19.0826C32.5386 19.0667 32.6109 19.0667 32.7556 19.0667H33.0667C33.5066 19.0667 33.7266 19.0667 33.8633 19.2034C34 19.3401 34 19.56 34 20V21.8667C34 22.3822 34.4179 22.8 34.9333 22.8C35.4488 22.8 35.8667 22.3822 35.8667 21.8667V21.5556C35.8667 21.4109 35.8667 21.3386 35.8826 21.2792C35.9257 21.1182 36.0515 20.9924 36.2125 20.9493C36.2719 20.9334 36.3442 20.9334 36.4889 20.9334H38.6667C39.1821 20.9334 39.6 20.5155 39.6 20C39.6 19.4846 39.1821 19.0667 38.6667 19.0667H36.8C36.36 19.0667 36.14 19.0667 36.0033 18.93C35.8667 18.7933 35.8667 18.5733 35.8667 18.1334C35.8667 17.6934 35.8667 17.4734 36.0033 17.3367C36.14 17.2 36.36 17.2 36.8 17.2H38.6667C39.1821 17.2 39.6 16.7822 39.6 16.2667C39.6 15.7512 39.1821 15.3334 38.6667 15.3334H35.2444C34.9551 15.3334 34.8105 15.3334 34.6918 15.3652C34.3697 15.4515 34.1181 15.703 34.0318 16.0251C34 16.1438 34 16.2885 34 16.5778C34 16.7225 34 16.7948 33.9841 16.8541C33.9409 17.0152 33.8152 17.141 33.6541 17.1841C33.5948 17.2 33.5224 17.2 33.3778 17.2H32.7556C32.6109 17.2 32.5386 17.2 32.4792 17.1841C32.3182 17.141 32.1924 17.0152 32.1492 16.8541C32.1333 16.7948 32.1333 16.7225 32.1333 16.5778V16.2667C32.1333 15.7512 31.7155 15.3334 31.2 15.3334Z" fill="#E0E0E0"/>
<path d="M27.4667 24.6667C26.9512 24.6667 26.5333 24.2488 26.5333 23.7334C26.5333 23.2179 26.9512 22.8 27.4667 22.8C27.9821 22.8 28.4 23.2179 28.4 23.7334C28.4 24.2488 27.9821 24.6667 27.4667 24.6667Z" fill="#E0E0E0"/>
<path d="M21.8667 37.7334C22.3821 37.7334 22.8 38.1512 22.8 38.6667C22.8 39.1822 22.3821 39.6 21.8667 39.6H16.2667C15.7512 39.6 15.3333 39.1822 15.3333 38.6667C15.3333 38.1512 15.7512 37.7334 16.2667 37.7334H21.8667Z" fill="#E0E0E0"/>
<path fill-rule="evenodd" clip-rule="evenodd" d="M13.4667 6.93336C13.4667 4.31169 13.4667 3.00086 12.8375 2.05923C12.5651 1.65159 12.2151 1.30158 11.8075 1.0292C10.8658 0.400024 9.55499 0.400024 6.93333 0.400024C4.31166 0.400024 3.00083 0.400024 2.0592 1.0292C1.65156 1.30158 1.30155 1.65159 1.02917 2.05923C0.399994 3.00086 0.399994 4.31169 0.399994 6.93336C0.399994 9.55502 0.399994 10.8659 1.02917 11.8075C1.30155 12.2151 1.65156 12.5651 2.0592 12.8375C3.00083 13.4667 4.31166 13.4667 6.93333 13.4667C9.55499 13.4667 10.8658 13.4667 11.8075 12.8375C12.2151 12.5651 12.5651 12.2151 12.8375 11.8075C13.4667 10.8659 13.4667 9.55502 13.4667 6.93336ZM11.6 6.00002C11.6 4.24011 11.6 3.36016 11.0533 2.81343C10.5065 2.26669 9.62657 2.26669 7.86666 2.26669H5.99999C4.24008 2.26669 3.36013 2.26669 2.81339 2.81343C2.26666 3.36016 2.26666 4.24011 2.26666 6.00002V7.86669C2.26666 9.6266 2.26666 10.5066 2.81339 11.0533C3.36013 11.6 4.24008 11.6 5.99999 11.6H7.86666C9.62657 11.6 10.5065 11.6 11.0533 11.0533C11.6 10.5066 11.6 9.6266 11.6 7.86669V6.00002Z" fill="#E0E0E0"/>
<path d="M4.13333 6.00002C4.13333 5.12007 4.13333 4.68009 4.40669 4.40672C4.68006 4.13336 5.12004 4.13336 5.99999 4.13336H7.86666C8.74662 4.13336 9.18659 4.13336 9.45996 4.40672C9.73333 4.68009 9.73333 5.12007 9.73333 6.00002V7.86669C9.73333 8.74665 9.73333 9.18662 9.45996 9.45999C9.18659 9.73336 8.74662 9.73336 7.86666 9.73336H5.99999C5.12004 9.73336 4.68006 9.73336 4.40669 9.45999C4.13333 9.18662 4.13333 8.74665 4.13333 7.86669V6.00002Z" fill="#E0E0E0"/>
<path fill-rule="evenodd" clip-rule="evenodd" d="M39.6 6.93336C39.6 4.31169 39.6 3.00086 38.9708 2.05923C38.6984 1.65159 38.3484 1.30158 37.9408 1.0292C36.9992 0.400024 35.6883 0.400024 33.0667 0.400024C30.445 0.400024 29.1342 0.400024 28.1925 1.0292C27.7849 1.30158 27.4349 1.65159 27.1625 2.05923C26.5333 3.00086 26.5333 4.31169 26.5333 6.93336C26.5333 9.55502 26.5333 10.8659 27.1625 11.8075C27.4349 12.2151 27.7849 12.5651 28.1925 12.8375C29.1342 13.4667 30.445 13.4667 33.0667 13.4667C35.6883 13.4667 36.9992 13.4667 37.9408 12.8375C38.3484 12.5651 38.6984 12.2151 38.9708 11.8075C39.6 10.8659 39.6 9.55502 39.6 6.93336ZM37.7333 6.00002C37.7333 4.24011 37.7333 3.36016 37.1866 2.81343C36.6399 2.26669 35.7599 2.26669 34 2.26669H32.1333C30.3734 2.26669 29.4935 2.26669 28.9467 2.81343C28.4 3.36016 28.4 4.24011 28.4 6.00002V7.86669C28.4 9.6266 28.4 10.5066 28.9467 11.0533C29.4935 11.6 30.3734 11.6 32.1333 11.6H34C35.7599 11.6 36.6399 11.6 37.1866 11.0533C37.7333 10.5066 37.7333 9.6266 37.7333 7.86669V6.00002Z" fill="#E0E0E0"/>
<path d="M30.2667 6.00002C30.2667 5.12007 30.2667 4.68009 30.54 4.40672C30.8134 4.13336 31.2534 4.13336 32.1333 4.13336H34C34.8799 4.13336 35.3199 4.13336 35.5933 4.40672C35.8667 4.68009 35.8667 5.12007 35.8667 6.00002V7.86669C35.8667 8.74665 35.8667 9.18662 35.5933 9.45999C35.3199 9.73336 34.8799 9.73336 34 9.73336H32.1333C31.2534 9.73336 30.8134 9.73336 30.54 9.45999C30.2667 9.18662 30.2667 8.74665 30.2667 7.86669V6.00002Z" fill="#E0E0E0"/>
<path fill-rule="evenodd" clip-rule="evenodd" d="M13.4667 33.0667C13.4667 30.445 13.4667 29.1342 12.8375 28.1926C12.5651 27.7849 12.2151 27.4349 11.8075 27.1625C10.8658 26.5334 9.55499 26.5334 6.93333 26.5334C4.31166 26.5334 3.00083 26.5334 2.0592 27.1625C1.65156 27.4349 1.30155 27.7849 1.02917 28.1926C0.399994 29.1342 0.399994 30.445 0.399994 33.0667C0.399994 35.6884 0.399994 36.9992 1.02917 37.9408C1.30155 38.3485 1.65156 38.6985 2.0592 38.9708C3.00083 39.6 4.31166 39.6 6.93333 39.6C9.55499 39.6 10.8658 39.6 11.8075 38.9708C12.2151 38.6985 12.5651 38.3485 12.8375 37.9408C13.4667 36.9992 13.4667 35.6884 13.4667 33.0667ZM11.6 32.1334C11.6 30.3734 11.6 29.4935 11.0533 28.9468C10.5065 28.4 9.62657 28.4 7.86666 28.4H5.99999C4.24008 28.4 3.36013 28.4 2.81339 28.9468C2.26666 29.4935 2.26666 30.3734 2.26666 32.1334V34C2.26666 35.7599 2.26666 36.6399 2.81339 37.1866C3.36013 37.7334 4.24008 37.7334 5.99999 37.7334H7.86666C9.62657 37.7334 10.5065 37.7334 11.0533 37.1866C11.6 36.6399 11.6 35.7599 11.6 34V32.1334Z" fill="#E0E0E0"/>
<path d="M4.13333 32.1334C4.13333 31.2534 4.13333 30.8134 4.40669 30.5401C4.68006 30.2667 5.12004 30.2667 5.99999 30.2667H7.86666C8.74662 30.2667 9.18659 30.2667 9.45996 30.5401C9.73333 30.8134 9.73333 31.2534 9.73333 32.1334V34C9.73333 34.88 9.73333 35.32 9.45996 35.5933C9.18659 35.8667 8.74662 35.8667 7.86666 35.8667H5.99999C5.12004 35.8667 4.68006 35.8667 4.40669 35.5933C4.13333 35.32 4.13333 34.88 4.13333 34V32.1334Z" fill="#E0E0E0"/>
</svg>
